P2
10 10
255
255 255 255 0 0 0 0 90 90 90 
255 255 255 0 0 0 0 90 90 90 
255 255 255 0 0 0 0 90 90 90 
255 255 255 0 0 0 0 90 90 90 
255 255 255 0 0 0 0 90 90 90 
0 0 0 0 0 0 0 0 0 90 
255 0 0 0 0 0 0 0 90 90 
255 255 0 0 0 0 0 90 90 90 
255 255 255 0 0 0 90 90 90 90 
255 255 255 255 0 90 90 90 90 90 
